# Blender v2.80 (sub 75) OBJ File: 'stone_blocks.blend'
# www.blender.org
mtllib stone_block_2x4.mtl
o stone_block_2x4_Cube.020
v 3.890000 0.890000 -2.000000
v 3.890000 1.000000 -1.890000
v 4.000000 0.890000 -1.890000
v 3.890000 0.945000 -1.945000
v 3.926667 0.926667 -1.926666
v 3.945000 0.945000 -1.890000
v 3.945000 0.890000 -1.945000
v 3.890000 -1.000000 -1.890000
v 3.890000 -0.890000 -2.000000
v 4.000000 -0.890000 -1.890000
v 3.890000 -0.945000 -1.945000
v 3.926667 -0.926667 -1.926666
v 3.945000 -0.890000 -1.945000
v 3.945000 -0.945000 -1.890000
v 4.000000 0.890000 1.890000
v 3.890000 1.000000 1.890000
v 3.890000 0.890000 2.000000
v 3.945000 0.945000 1.890000
v 3.926667 0.926667 1.926666
v 3.890000 0.945000 1.945000
v 3.945000 0.890000 1.945000
v 4.000000 -0.890000 1.890000
v 3.890000 -0.890000 2.000000
v 3.890000 -1.000000 1.890000
v 3.945000 -0.890000 1.945000
v 3.926667 -0.926667 1.926666
v 3.890000 -0.945000 1.945000
v 3.945000 -0.945000 1.890000
v -3.890000 0.890000 -2.000000
v -4.000000 0.890000 -1.890000
v -3.890000 1.000000 -1.890000
v -3.945000 0.890000 -1.945000
v -3.926667 0.926667 -1.926666
v -3.945000 0.945000 -1.890000
v -3.890000 0.945000 -1.945000
v -4.000000 -0.890000 -1.890000
v -3.890000 -0.890000 -2.000000
v -3.890000 -1.000000 -1.890000
v -3.945000 -0.890000 -1.945000
v -3.926667 -0.926667 -1.926666
v -3.890000 -0.945000 -1.945000
v -3.945000 -0.945000 -1.890000
v -4.000000 0.890000 1.890000
v -3.890000 0.890000 2.000000
v -3.890000 1.000000 1.890000
v -3.945000 0.890000 1.945000
v -3.926667 0.926667 1.926666
v -3.890000 0.945000 1.945000
v -3.945000 0.945000 1.890000
v -3.890000 -1.000000 1.890000
v -3.890000 -0.890000 2.000000
v -4.000000 -0.890000 1.890000
v -3.890000 -0.945000 1.945000
v -3.926667 -0.926667 1.926666
v -3.945000 -0.890000 1.945000
v -3.945000 -0.945000 1.890000
vt 0.706001 0.327390
vt 0.706001 0.094310
vt 0.819243 0.094306
vt 0.819242 0.327395
vt 0.969591 0.214650
vt 0.916228 0.214661
vt 0.916224 0.101325
vt 0.969586 0.101315
vt 0.951162 0.722197
vt 0.897804 0.722192
vt 0.897806 0.488935
vt 0.951164 0.488940
vt 0.839786 0.471769
vt 0.839787 0.238688
vt 0.953028 0.238684
vt 0.953028 0.471773
vt 0.897383 0.215043
vt 0.844021 0.215033
vt 0.844025 0.101697
vt 0.897388 0.101707
vt 0.952481 0.982398
vt 0.954716 0.982790
vt 0.954325 0.984248
vt 0.952868 0.984638
vt 0.839398 0.474001
vt 0.837945 0.473611
vt 0.837556 0.472158
vt 0.843632 0.217274
vt 0.842174 0.216883
vt 0.841783 0.215424
vt 0.703770 0.093920
vt 0.704160 0.092467
vt 0.705613 0.092077
vt 0.899122 0.982403
vt 0.898735 0.984648
vt 0.897275 0.984256
vt 0.896885 0.982796
vt 0.899625 0.215435
vt 0.899236 0.216898
vt 0.897774 0.217293
vt 0.841783 0.101305
vt 0.842172 0.099841
vt 0.843634 0.099447
vt 0.955262 0.472164
vt 0.954872 0.473621
vt 0.953416 0.474011
vt 0.897417 0.724432
vt 0.895959 0.724042
vt 0.895569 0.722584
vt 0.897776 0.099466
vt 0.899235 0.099857
vt 0.899625 0.101316
vt 0.953399 0.722590
vt 0.953009 0.724050
vt 0.951550 0.724442
vt 0.819631 0.092068
vt 0.821087 0.092459
vt 0.821476 0.093915
vt 0.952478 0.749142
vt 0.952866 0.746896
vt 0.954325 0.747288
vt 0.954716 0.748749
vt 0.913986 0.100934
vt 0.914377 0.099475
vt 0.915835 0.099084
vt 0.837556 0.238299
vt 0.837945 0.236845
vt 0.839399 0.236456
vt 0.969978 0.099064
vt 0.971439 0.099459
vt 0.971828 0.100923
vt 0.899120 0.749146
vt 0.896885 0.748754
vt 0.897276 0.747297
vt 0.898733 0.746907
vt 0.705613 0.329623
vt 0.704159 0.329233
vt 0.703770 0.327780
vt 0.915837 0.216911
vt 0.914375 0.216516
vt 0.913986 0.215053
vt 0.895569 0.488542
vt 0.895959 0.487083
vt 0.897418 0.486691
vt 0.953416 0.236447
vt 0.954872 0.236837
vt 0.955262 0.238293
vt 0.821476 0.327786
vt 0.821086 0.329242
vt 0.819630 0.329633
vt 0.951551 0.486700
vt 0.953008 0.487090
vt 0.953399 0.488548
vt 0.971828 0.215041
vt 0.971438 0.216500
vt 0.969979 0.216891
vn -0.3416 -0.8756 -0.3416
vn 0.3416 -0.8756 -0.3416
vn 0.3416 -0.8756 0.3416
vn -0.3416 -0.8756 0.3416
vn -0.8756 -0.3416 0.3416
vn -0.8756 0.3416 0.3416
vn -0.8756 0.3416 -0.3416
vn -0.8756 -0.3416 -0.3416
vn 0.3416 -0.3416 0.8756
vn 0.3416 0.3416 0.8756
vn -0.3416 0.3416 0.8756
vn -0.3416 -0.3416 0.8756
vn 0.3416 0.8756 -0.3416
vn -0.3416 0.8756 -0.3416
vn -0.3416 0.8756 0.3416
vn 0.3416 0.8756 0.3416
vn 0.8756 -0.3416 -0.3416
vn 0.8756 0.3416 -0.3416
vn 0.8756 0.3416 0.3416
vn 0.8756 -0.3416 0.3416
vn 0.3416 0.3416 -0.8756
vn 0.3029 0.6739 -0.6739
vn 0.5773 0.5773 -0.5773
vn 0.6739 0.3029 -0.6739
vn 0.6739 0.6739 -0.3029
vn 0.3029 -0.6739 -0.6739
vn 0.5773 -0.5773 -0.5773
vn 0.6739 -0.6739 -0.3029
vn 0.3416 -0.3416 -0.8756
vn 0.6739 -0.3029 -0.6739
vn 0.6739 0.6739 0.3029
vn 0.5773 0.5773 0.5773
vn 0.6739 0.3029 0.6739
vn 0.3029 0.6739 0.6739
vn 0.6739 -0.3029 0.6739
vn 0.5773 -0.5773 0.5773
vn 0.6739 -0.6739 0.3029
vn 0.3029 -0.6739 0.6739
vn -0.3416 0.3416 -0.8756
vn -0.6739 0.3029 -0.6739
vn -0.5773 0.5773 -0.5773
vn -0.3029 0.6739 -0.6739
vn -0.6739 0.6739 -0.3029
vn -0.6739 -0.3029 -0.6739
vn -0.5773 -0.5773 -0.5773
vn -0.6739 -0.6739 -0.3029
vn -0.3416 -0.3416 -0.8756
vn -0.3029 -0.6739 -0.6739
vn -0.6739 0.3029 0.6739
vn -0.5773 0.5773 0.5773
vn -0.6739 0.6739 0.3029
vn -0.3029 0.6739 0.6739
vn -0.3029 -0.6739 0.6739
vn -0.5773 -0.5773 0.5773
vn -0.6739 -0.6739 0.3029
vn -0.6739 -0.3029 0.6739
usemtl stone_block
s 1
f 38/1/1 8/2/2 24/3/3 50/4/4
f 52/5/5 43/6/6 30/7/7 36/8/8
f 23/9/9 17/10/10 44/11/11 51/12/12
f 2/13/13 31/14/14 45/15/15 16/16/16
f 10/17/17 3/18/18 15/19/19 22/20/20
f 1/21/21 4/22/22 5/23/23 7/24/24
f 2/13/13 6/25/25 5/26/23 4/27/22
f 3/18/18 7/28/24 5/29/23 6/30/25
f 8/2/2 11/31/26 12/32/27 14/33/28
f 9/34/29 13/35/30 12/36/27 11/37/26
f 10/17/17 14/38/28 12/39/27 13/40/30
f 15/19/19 18/41/31 19/42/32 21/43/33
f 16/16/16 20/44/34 19/45/32 18/46/31
f 17/10/10 21/47/33 19/48/32 20/49/34
f 22/20/20 25/50/35 26/51/36 28/52/37
f 23/9/9 27/53/38 26/54/36 25/55/35
f 24/3/3 28/56/37 26/57/36 27/58/38
f 29/59/39 32/60/40 33/61/41 35/62/42
f 30/7/7 34/63/43 33/64/41 32/65/40
f 31/14/14 35/66/42 33/67/41 34/68/43
f 36/8/8 39/69/44 40/70/45 42/71/46
f 37/72/47 41/73/48 40/74/45 39/75/44
f 38/1/1 42/76/46 40/77/45 41/78/48
f 43/6/6 46/79/49 47/80/50 49/81/51
f 44/11/11 48/82/52 47/83/50 46/84/49
f 45/15/15 49/85/51 47/86/50 48/87/52
f 50/4/4 53/88/53 54/89/54 56/90/55
f 51/12/12 55/91/56 54/92/54 53/93/53
f 52/5/5 56/94/55 54/95/54 55/96/56
f 38/1/1 50/4/4 56/90/55 42/76/46
f 42/71/46 56/94/55 52/5/5 36/8/8
f 8/2/2 38/1/1 41/78/48 11/31/26
f 11/37/26 41/73/48 37/72/47 9/34/29
f 3/18/18 10/17/17 13/40/30 7/28/24
f 7/24/24 13/35/30 9/34/29 1/21/21
f 51/12/12 44/11/11 46/84/49 55/91/56
f 55/96/56 46/79/49 43/6/6 52/5/5
f 17/10/10 23/9/9 25/55/35 21/47/33
f 21/43/33 25/50/35 22/20/20 15/19/19
f 29/59/39 37/72/47 39/75/44 32/60/40
f 32/65/40 39/69/44 36/8/8 30/7/7
f 16/16/16 45/15/15 48/87/52 20/44/34
f 20/49/34 48/82/52 44/11/11 17/10/10
f 2/13/13 16/16/16 18/46/31 6/25/25
f 6/30/25 18/41/31 15/19/19 3/18/18
f 50/4/4 24/3/3 27/58/38 53/88/53
f 53/93/53 27/53/38 23/9/9 51/12/12
f 45/15/15 31/14/14 34/68/43 49/85/51
f 49/81/51 34/63/43 30/7/7 43/6/6
f 31/14/14 2/13/13 4/27/22 35/66/42
f 35/62/42 4/22/22 1/21/21 29/59/39
f 24/3/3 8/2/2 14/33/28 28/56/37
f 28/52/37 14/38/28 10/17/17 22/20/20
f 37/72/47 29/59/39 1/21/21 9/34/29
