# Blender v2.80 (sub 75) OBJ File: 'stone_blocks.blend'
# www.blender.org
mtllib stone_block_1x3.mtl
o stone_block_1x3_Cube.016
v 2.890000 0.890000 -1.000000
v 2.890000 1.000000 -0.890000
v 3.000000 0.890000 -0.890000
v 2.890000 0.945000 -0.945000
v 2.926667 0.926667 -0.926667
v 2.945000 0.945000 -0.890000
v 2.945000 0.890000 -0.945000
v 2.890000 -1.000000 -0.890000
v 2.890000 -0.890000 -1.000000
v 3.000000 -0.890000 -0.890000
v 2.890000 -0.945000 -0.945000
v 2.926667 -0.926667 -0.926667
v 2.945000 -0.890000 -0.945000
v 2.945000 -0.945000 -0.890000
v 3.000000 0.890000 0.890000
v 2.890000 1.000000 0.890000
v 2.890000 0.890000 1.000000
v 2.945000 0.945000 0.890000
v 2.926667 0.926667 0.926667
v 2.890000 0.945000 0.945000
v 2.945000 0.890000 0.945000
v 3.000000 -0.890000 0.890000
v 2.890000 -0.890000 1.000000
v 2.890000 -1.000000 0.890000
v 2.945000 -0.890000 0.945000
v 2.926667 -0.926667 0.926667
v 2.890000 -0.945000 0.945000
v 2.945000 -0.945000 0.890000
v -2.890000 0.890000 -1.000000
v -3.000000 0.890000 -0.890000
v -2.890000 1.000000 -0.890000
v -2.945000 0.890000 -0.945000
v -2.926667 0.926667 -0.926667
v -2.945000 0.945000 -0.890000
v -2.890000 0.945000 -0.945000
v -3.000000 -0.890000 -0.890000
v -2.890000 -0.890000 -1.000000
v -2.890000 -1.000000 -0.890000
v -2.945000 -0.890000 -0.945000
v -2.926667 -0.926667 -0.926667
v -2.890000 -0.945000 -0.945000
v -2.945000 -0.945000 -0.890000
v -3.000000 0.890000 0.890000
v -2.890000 0.890000 1.000000
v -2.890000 1.000000 0.890000
v -2.945000 0.890000 0.945000
v -2.926667 0.926667 0.926667
v -2.890000 0.945000 0.945000
v -2.945000 0.945000 0.890000
v -2.890000 -1.000000 0.890000
v -2.890000 -0.890000 1.000000
v -3.000000 -0.890000 0.890000
v -2.890000 -0.945000 0.945000
v -2.926667 -0.926667 0.926667
v -2.945000 -0.890000 0.945000
v -2.945000 -0.945000 0.890000
vt 0.574543 0.610954
vt 0.574542 0.783706
vt 0.521350 0.783711
vt 0.521351 0.610948
vt 0.650948 0.659524
vt 0.650937 0.712728
vt 0.597732 0.712700
vt 0.597744 0.659496
vt 0.354022 0.781571
vt 0.300829 0.781565
vt 0.300832 0.608810
vt 0.354025 0.608817
vt 0.446314 0.782929
vt 0.446314 0.610178
vt 0.499506 0.610172
vt 0.499505 0.782935
vt 0.597007 0.784823
vt 0.596995 0.731619
vt 0.650200 0.731591
vt 0.650211 0.784795
vt 0.426583 0.782662
vt 0.428812 0.783053
vt 0.428422 0.784506
vt 0.426969 0.784895
vt 0.445928 0.785162
vt 0.444474 0.784773
vt 0.444085 0.783320
vt 0.594758 0.731231
vt 0.595148 0.729774
vt 0.596606 0.729383
vt 0.576771 0.784096
vt 0.576382 0.785549
vt 0.574928 0.785939
vt 0.373390 0.782669
vt 0.373003 0.784909
vt 0.371547 0.784517
vt 0.371158 0.783060
vt 0.596621 0.787068
vt 0.595157 0.786683
vt 0.594758 0.785224
vt 0.650585 0.729347
vt 0.652049 0.729731
vt 0.652448 0.731190
vt 0.501738 0.783327
vt 0.501348 0.784785
vt 0.499891 0.785176
vt 0.300443 0.783798
vt 0.298990 0.783409
vt 0.298600 0.781955
vt 0.652448 0.785183
vt 0.652058 0.786640
vt 0.650601 0.787031
vt 0.356254 0.781962
vt 0.355865 0.783419
vt 0.354409 0.783811
vt 0.520965 0.785951
vt 0.519508 0.785560
vt 0.519119 0.784103
vt 0.426579 0.609908
vt 0.426967 0.607668
vt 0.428423 0.608060
vt 0.428812 0.609517
vt 0.597343 0.714936
vt 0.595886 0.714545
vt 0.595496 0.713088
vt 0.444085 0.609787
vt 0.444475 0.608334
vt 0.445928 0.607944
vt 0.595496 0.659095
vt 0.595894 0.657635
vt 0.597358 0.657251
vt 0.373387 0.609915
vt 0.371158 0.609524
vt 0.371547 0.608071
vt 0.373001 0.607681
vt 0.574929 0.608721
vt 0.576382 0.609111
vt 0.576771 0.610564
vt 0.653185 0.713128
vt 0.652786 0.714588
vt 0.651322 0.714972
vt 0.298600 0.608419
vt 0.298989 0.606962
vt 0.300444 0.606571
vt 0.499892 0.607932
vt 0.501348 0.608323
vt 0.501738 0.609780
vt 0.519119 0.610556
vt 0.519508 0.609099
vt 0.520965 0.608708
vt 0.354411 0.606583
vt 0.355864 0.606973
vt 0.356254 0.608426
vt 0.651338 0.657287
vt 0.652795 0.657678
vt 0.653185 0.659136
vn -0.3416 -0.8756 -0.3416
vn 0.3416 -0.8756 -0.3416
vn 0.3416 -0.8756 0.3416
vn -0.3416 -0.8756 0.3416
vn -0.8756 -0.3416 0.3416
vn -0.8756 0.3416 0.3416
vn -0.8756 0.3416 -0.3416
vn -0.8756 -0.3416 -0.3416
vn 0.3416 -0.3416 0.8756
vn 0.3416 0.3416 0.8756
vn -0.3416 0.3416 0.8756
vn -0.3416 -0.3416 0.8756
vn 0.3416 0.8756 -0.3416
vn -0.3416 0.8756 -0.3416
vn -0.3416 0.8756 0.3416
vn 0.3416 0.8756 0.3416
vn 0.8756 -0.3416 -0.3416
vn 0.8756 0.3416 -0.3416
vn 0.8756 0.3416 0.3416
vn 0.8756 -0.3416 0.3416
vn 0.3416 0.3416 -0.8756
vn 0.3029 0.6739 -0.6739
vn 0.5773 0.5773 -0.5773
vn 0.6739 0.3029 -0.6739
vn 0.6739 0.6739 -0.3029
vn 0.3029 -0.6739 -0.6739
vn 0.5773 -0.5773 -0.5773
vn 0.6739 -0.6739 -0.3029
vn 0.3416 -0.3416 -0.8756
vn 0.6739 -0.3029 -0.6739
vn 0.6739 0.6739 0.3029
vn 0.5773 0.5773 0.5773
vn 0.6739 0.3029 0.6739
vn 0.3029 0.6739 0.6739
vn 0.6739 -0.3029 0.6739
vn 0.5773 -0.5773 0.5773
vn 0.6739 -0.6739 0.3029
vn 0.3029 -0.6739 0.6739
vn -0.3416 0.3416 -0.8756
vn -0.6739 0.3029 -0.6739
vn -0.5773 0.5773 -0.5773
vn -0.3029 0.6739 -0.6739
vn -0.6739 0.6739 -0.3029
vn -0.6739 -0.3029 -0.6739
vn -0.5773 -0.5773 -0.5773
vn -0.6739 -0.6739 -0.3029
vn -0.3416 -0.3416 -0.8756
vn -0.3029 -0.6739 -0.6739
vn -0.6739 0.3029 0.6739
vn -0.5773 0.5773 0.5773
vn -0.6739 0.6739 0.3029
vn -0.3029 0.6739 0.6739
vn -0.3029 -0.6739 0.6739
vn -0.5773 -0.5773 0.5773
vn -0.6739 -0.6739 0.3029
vn -0.6739 -0.3029 0.6739
usemtl stone_block
s 1
f 38/1/1 8/2/2 24/3/3 50/4/4
f 52/5/5 43/6/6 30/7/7 36/8/8
f 23/9/9 17/10/10 44/11/11 51/12/12
f 2/13/13 31/14/14 45/15/15 16/16/16
f 10/17/17 3/18/18 15/19/19 22/20/20
f 1/21/21 4/22/22 5/23/23 7/24/24
f 2/13/13 6/25/25 5/26/23 4/27/22
f 3/18/18 7/28/24 5/29/23 6/30/25
f 8/2/2 11/31/26 12/32/27 14/33/28
f 9/34/29 13/35/30 12/36/27 11/37/26
f 10/17/17 14/38/28 12/39/27 13/40/30
f 15/19/19 18/41/31 19/42/32 21/43/33
f 16/16/16 20/44/34 19/45/32 18/46/31
f 17/10/10 21/47/33 19/48/32 20/49/34
f 22/20/20 25/50/35 26/51/36 28/52/37
f 23/9/9 27/53/38 26/54/36 25/55/35
f 24/3/3 28/56/37 26/57/36 27/58/38
f 29/59/39 32/60/40 33/61/41 35/62/42
f 30/7/7 34/63/43 33/64/41 32/65/40
f 31/14/14 35/66/42 33/67/41 34/68/43
f 36/8/8 39/69/44 40/70/45 42/71/46
f 37/72/47 41/73/48 40/74/45 39/75/44
f 38/1/1 42/76/46 40/77/45 41/78/48
f 43/6/6 46/79/49 47/80/50 49/81/51
f 44/11/11 48/82/52 47/83/50 46/84/49
f 45/15/15 49/85/51 47/86/50 48/87/52
f 50/4/4 53/88/53 54/89/54 56/90/55
f 51/12/12 55/91/56 54/92/54 53/93/53
f 52/5/5 56/94/55 54/95/54 55/96/56
f 38/1/1 50/4/4 56/90/55 42/76/46
f 42/71/46 56/94/55 52/5/5 36/8/8
f 8/2/2 38/1/1 41/78/48 11/31/26
f 11/37/26 41/73/48 37/72/47 9/34/29
f 3/18/18 10/17/17 13/40/30 7/28/24
f 7/24/24 13/35/30 9/34/29 1/21/21
f 51/12/12 44/11/11 46/84/49 55/91/56
f 55/96/56 46/79/49 43/6/6 52/5/5
f 17/10/10 23/9/9 25/55/35 21/47/33
f 21/43/33 25/50/35 22/20/20 15/19/19
f 29/59/39 37/72/47 39/75/44 32/60/40
f 32/65/40 39/69/44 36/8/8 30/7/7
f 16/16/16 45/15/15 48/87/52 20/44/34
f 20/49/34 48/82/52 44/11/11 17/10/10
f 2/13/13 16/16/16 18/46/31 6/25/25
f 6/30/25 18/41/31 15/19/19 3/18/18
f 50/4/4 24/3/3 27/58/38 53/88/53
f 53/93/53 27/53/38 23/9/9 51/12/12
f 45/15/15 31/14/14 34/68/43 49/85/51
f 49/81/51 34/63/43 30/7/7 43/6/6
f 31/14/14 2/13/13 4/27/22 35/66/42
f 35/62/42 4/22/22 1/21/21 29/59/39
f 24/3/3 8/2/2 14/33/28 28/56/37
f 28/52/37 14/38/28 10/17/17 22/20/20
f 37/72/47 29/59/39 1/21/21 9/34/29
