# Blender v2.80 (sub 75) OBJ File: 'stone_blocks.blend'
# www.blender.org
mtllib stone_block_2x2.mtl
o stone_block_2x2_Cube.015
v 1.890000 0.890000 -2.000000
v 1.890000 1.000000 -1.890000
v 2.000000 0.890000 -1.890000
v 1.890000 0.945000 -1.945000
v 1.926666 0.926667 -1.926666
v 1.945000 0.945000 -1.890000
v 1.945000 0.890000 -1.945000
v 1.890000 -1.000000 -1.890000
v 1.890000 -0.890000 -2.000000
v 2.000000 -0.890000 -1.890000
v 1.890000 -0.945000 -1.945000
v 1.926666 -0.926667 -1.926666
v 1.945000 -0.890000 -1.945000
v 1.945000 -0.945000 -1.890000
v 2.000000 0.890000 1.890000
v 1.890000 1.000000 1.890000
v 1.890000 0.890000 2.000000
v 1.945000 0.945000 1.890000
v 1.926666 0.926667 1.926666
v 1.890000 0.945000 1.945000
v 1.945000 0.890000 1.945000
v 2.000000 -0.890000 1.890000
v 1.890000 -0.890000 2.000000
v 1.890000 -1.000000 1.890000
v 1.945000 -0.890000 1.945000
v 1.926666 -0.926667 1.926666
v 1.890000 -0.945000 1.945000
v 1.945000 -0.945000 1.890000
v -1.890000 0.890000 -2.000000
v -2.000000 0.890000 -1.890000
v -1.890000 1.000000 -1.890000
v -1.945000 0.890000 -1.945000
v -1.926666 0.926667 -1.926666
v -1.945000 0.945000 -1.890000
v -1.890000 0.945000 -1.945000
v -2.000000 -0.890000 -1.890000
v -1.890000 -0.890000 -2.000000
v -1.890000 -1.000000 -1.890000
v -1.945000 -0.890000 -1.945000
v -1.926666 -0.926667 -1.926666
v -1.890000 -0.945000 -1.945000
v -1.945000 -0.945000 -1.890000
v -2.000000 0.890000 1.890000
v -1.890000 0.890000 2.000000
v -1.890000 1.000000 1.890000
v -1.945000 0.890000 1.945000
v -1.926666 0.926667 1.926666
v -1.890000 0.945000 1.945000
v -1.945000 0.945000 1.890000
v -1.890000 -1.000000 1.890000
v -1.890000 -0.890000 2.000000
v -2.000000 -0.890000 1.890000
v -1.890000 -0.945000 1.945000
v -1.926666 -0.926667 1.926666
v -1.945000 -0.890000 1.945000
v -1.945000 -0.945000 1.890000
vt 0.134898 0.667678
vt 0.134898 0.780395
vt 0.022180 0.780404
vt 0.022180 0.667669
vt 0.283415 0.915590
vt 0.230311 0.915600
vt 0.230306 0.802813
vt 0.283411 0.802803
vt 0.156316 0.666651
vt 0.209420 0.666662
vt 0.209415 0.779449
vt 0.156311 0.779438
vt 0.136714 0.801722
vt 0.136714 0.914440
vt 0.023996 0.914448
vt 0.023996 0.801714
vt 0.229244 0.667369
vt 0.282349 0.667379
vt 0.282344 0.780166
vt 0.229240 0.780155
vt 0.158025 0.801530
vt 0.155798 0.801141
vt 0.156187 0.799689
vt 0.157639 0.799300
vt 0.137101 0.799499
vt 0.138549 0.799887
vt 0.138937 0.801335
vt 0.282735 0.665149
vt 0.284186 0.665538
vt 0.284575 0.666990
vt 0.137121 0.780782
vt 0.136733 0.782230
vt 0.135285 0.782618
vt 0.211129 0.801520
vt 0.211519 0.799281
vt 0.212973 0.799674
vt 0.213361 0.801130
vt 0.227013 0.666978
vt 0.227400 0.665522
vt 0.228855 0.665129
vt 0.284575 0.780556
vt 0.284188 0.782012
vt 0.282733 0.782405
vt 0.021768 0.801324
vt 0.022157 0.799870
vt 0.023609 0.799480
vt 0.209806 0.664431
vt 0.211258 0.664821
vt 0.211647 0.666272
vt 0.228854 0.782386
vt 0.227402 0.781996
vt 0.227013 0.780545
vt 0.154084 0.666261
vt 0.154471 0.664805
vt 0.155926 0.664412
vt 0.021793 0.782638
vt 0.020341 0.782247
vt 0.019952 0.780793
vt 0.158030 0.914317
vt 0.157640 0.916556
vt 0.156186 0.916164
vt 0.155798 0.914707
vt 0.228080 0.802424
vt 0.228469 0.800972
vt 0.229920 0.800583
vt 0.138937 0.914827
vt 0.138549 0.916275
vt 0.137101 0.916663
vt 0.283800 0.800564
vt 0.285255 0.800956
vt 0.285642 0.802413
vt 0.211134 0.914307
vt 0.213361 0.914696
vt 0.212972 0.916148
vt 0.211520 0.916537
vt 0.135285 0.665455
vt 0.136733 0.665843
vt 0.137121 0.667291
vt 0.229922 0.917839
vt 0.228467 0.917446
vt 0.228080 0.915990
vt 0.211647 0.779839
vt 0.211259 0.781295
vt 0.209805 0.781688
vt 0.023609 0.916682
vt 0.022157 0.916292
vt 0.021768 0.914838
vt 0.019952 0.667279
vt 0.020341 0.665826
vt 0.021793 0.665435
vt 0.155925 0.781668
vt 0.154473 0.781279
vt 0.154084 0.779827
vt 0.285642 0.915979
vt 0.285253 0.917431
vt 0.283802 0.917820
vn -0.3416 -0.8756 -0.3416
vn 0.3416 -0.8756 -0.3416
vn 0.3416 -0.8756 0.3416
vn -0.3416 -0.8756 0.3416
vn -0.8756 -0.3416 0.3416
vn -0.8756 0.3416 0.3416
vn -0.8756 0.3416 -0.3416
vn -0.8756 -0.3416 -0.3416
vn 0.3416 -0.3416 0.8756
vn 0.3416 0.3416 0.8756
vn -0.3416 0.3416 0.8756
vn -0.3416 -0.3416 0.8756
vn 0.3416 0.8756 -0.3416
vn -0.3416 0.8756 -0.3416
vn -0.3416 0.8756 0.3416
vn 0.3416 0.8756 0.3416
vn 0.8756 -0.3416 -0.3416
vn 0.8756 0.3416 -0.3416
vn 0.8756 0.3416 0.3416
vn 0.8756 -0.3416 0.3416
vn 0.3416 0.3416 -0.8756
vn 0.3029 0.6739 -0.6739
vn 0.5773 0.5773 -0.5773
vn 0.6739 0.3029 -0.6739
vn 0.6739 0.6739 -0.3029
vn 0.3029 -0.6739 -0.6739
vn 0.5773 -0.5773 -0.5773
vn 0.6739 -0.6739 -0.3029
vn 0.3416 -0.3416 -0.8756
vn 0.6739 -0.3029 -0.6739
vn 0.6739 0.6739 0.3029
vn 0.5773 0.5773 0.5773
vn 0.6739 0.3029 0.6739
vn 0.3029 0.6739 0.6739
vn 0.6739 -0.3029 0.6739
vn 0.5773 -0.5773 0.5773
vn 0.6739 -0.6739 0.3029
vn 0.3029 -0.6739 0.6739
vn -0.3416 0.3416 -0.8756
vn -0.6739 0.3029 -0.6739
vn -0.5773 0.5773 -0.5773
vn -0.3029 0.6739 -0.6739
vn -0.6739 0.6739 -0.3029
vn -0.6739 -0.3029 -0.6739
vn -0.5773 -0.5773 -0.5773
vn -0.6739 -0.6739 -0.3029
vn -0.3416 -0.3416 -0.8756
vn -0.3029 -0.6739 -0.6739
vn -0.6739 0.3029 0.6739
vn -0.5773 0.5773 0.5773
vn -0.6739 0.6739 0.3029
vn -0.3029 0.6739 0.6739
vn -0.3029 -0.6739 0.6739
vn -0.5773 -0.5773 0.5773
vn -0.6739 -0.6739 0.3029
vn -0.6739 -0.3029 0.6739
usemtl stone_block
s 1
f 38/1/1 8/2/2 24/3/3 50/4/4
f 52/5/5 43/6/6 30/7/7 36/8/8
f 23/9/9 17/10/10 44/11/11 51/12/12
f 2/13/13 31/14/14 45/15/15 16/16/16
f 10/17/17 3/18/18 15/19/19 22/20/20
f 1/21/21 4/22/22 5/23/23 7/24/24
f 2/13/13 6/25/25 5/26/23 4/27/22
f 3/18/18 7/28/24 5/29/23 6/30/25
f 8/2/2 11/31/26 12/32/27 14/33/28
f 9/34/29 13/35/30 12/36/27 11/37/26
f 10/17/17 14/38/28 12/39/27 13/40/30
f 15/19/19 18/41/31 19/42/32 21/43/33
f 16/16/16 20/44/34 19/45/32 18/46/31
f 17/10/10 21/47/33 19/48/32 20/49/34
f 22/20/20 25/50/35 26/51/36 28/52/37
f 23/9/9 27/53/38 26/54/36 25/55/35
f 24/3/3 28/56/37 26/57/36 27/58/38
f 29/59/39 32/60/40 33/61/41 35/62/42
f 30/7/7 34/63/43 33/64/41 32/65/40
f 31/14/14 35/66/42 33/67/41 34/68/43
f 36/8/8 39/69/44 40/70/45 42/71/46
f 37/72/47 41/73/48 40/74/45 39/75/44
f 38/1/1 42/76/46 40/77/45 41/78/48
f 43/6/6 46/79/49 47/80/50 49/81/51
f 44/11/11 48/82/52 47/83/50 46/84/49
f 45/15/15 49/85/51 47/86/50 48/87/52
f 50/4/4 53/88/53 54/89/54 56/90/55
f 51/12/12 55/91/56 54/92/54 53/93/53
f 52/5/5 56/94/55 54/95/54 55/96/56
f 38/1/1 50/4/4 56/90/55 42/76/46
f 42/71/46 56/94/55 52/5/5 36/8/8
f 8/2/2 38/1/1 41/78/48 11/31/26
f 11/37/26 41/73/48 37/72/47 9/34/29
f 3/18/18 10/17/17 13/40/30 7/28/24
f 7/24/24 13/35/30 9/34/29 1/21/21
f 51/12/12 44/11/11 46/84/49 55/91/56
f 55/96/56 46/79/49 43/6/6 52/5/5
f 17/10/10 23/9/9 25/55/35 21/47/33
f 21/43/33 25/50/35 22/20/20 15/19/19
f 29/59/39 37/72/47 39/75/44 32/60/40
f 32/65/40 39/69/44 36/8/8 30/7/7
f 16/16/16 45/15/15 48/87/52 20/44/34
f 20/49/34 48/82/52 44/11/11 17/10/10
f 2/13/13 16/16/16 18/46/31 6/25/25
f 6/30/25 18/41/31 15/19/19 3/18/18
f 50/4/4 24/3/3 27/58/38 53/88/53
f 53/93/53 27/53/38 23/9/9 51/12/12
f 45/15/15 31/14/14 34/68/43 49/85/51
f 49/81/51 34/63/43 30/7/7 43/6/6
f 31/14/14 2/13/13 4/27/22 35/66/42
f 35/62/42 4/22/22 1/21/21 29/59/39
f 24/3/3 8/2/2 14/33/28 28/56/37
f 28/52/37 14/38/28 10/17/17 22/20/20
f 37/72/47 29/59/39 1/21/21 9/34/29
