# Blender v2.80 (sub 75) OBJ File: 'stone_blocks.blend'
# www.blender.org
mtllib stone_block_1x1.mtl
o stone_block_1x1_Cube.013
v 0.890000 0.890000 -1.000000
v 0.890000 1.000000 -0.890000
v 1.000000 0.890000 -0.890000
v 0.890000 0.945000 -0.945000
v 0.926667 0.926667 -0.926667
v 0.945000 0.945000 -0.890000
v 0.945000 0.890000 -0.945000
v 0.890000 -1.000000 -0.890000
v 0.890000 -0.890000 -1.000000
v 1.000000 -0.890000 -0.890000
v 0.890000 -0.945000 -0.945000
v 0.926667 -0.926667 -0.926667
v 0.945000 -0.890000 -0.945000
v 0.945000 -0.945000 -0.890000
v 1.000000 0.890000 0.890000
v 0.890000 1.000000 0.890000
v 0.890000 0.890000 1.000000
v 0.945000 0.945000 0.890000
v 0.926667 0.926667 0.926667
v 0.890000 0.945000 0.945000
v 0.945000 0.890000 0.945000
v 1.000000 -0.890000 0.890000
v 0.890000 -0.890000 1.000000
v 0.890000 -1.000000 0.890000
v 0.945000 -0.890000 0.945000
v 0.926667 -0.926667 0.926667
v 0.890000 -0.945000 0.945000
v 0.945000 -0.945000 0.890000
v -0.890000 0.890000 -1.000000
v -1.000000 0.890000 -0.890000
v -0.890000 1.000000 -0.890000
v -0.945000 0.890000 -0.945000
v -0.926667 0.926667 -0.926667
v -0.945000 0.945000 -0.890000
v -0.890000 0.945000 -0.945000
v -1.000000 -0.890000 -0.890000
v -0.890000 -0.890000 -1.000000
v -0.890000 -1.000000 -0.890000
v -0.945000 -0.890000 -0.945000
v -0.926667 -0.926667 -0.926667
v -0.890000 -0.945000 -0.945000
v -0.945000 -0.945000 -0.890000
v -1.000000 0.890000 0.890000
v -0.890000 0.890000 1.000000
v -0.890000 1.000000 0.890000
v -0.945000 0.890000 0.945000
v -0.926667 0.926667 0.926667
v -0.890000 0.945000 0.945000
v -0.945000 0.945000 0.890000
v -0.890000 -1.000000 0.890000
v -0.890000 -0.890000 1.000000
v -1.000000 -0.890000 0.890000
v -0.890000 -0.945000 0.945000
v -0.926667 -0.926667 0.926667
v -0.945000 -0.890000 0.945000
v -0.945000 -0.945000 0.890000
vt 0.137518 0.936551
vt 0.137518 0.989162
vt 0.084905 0.989179
vt 0.084905 0.936534
vt 0.354057 0.936206
vt 0.354046 0.988832
vt 0.301420 0.988804
vt 0.301431 0.936178
vt 0.010524 0.989535
vt 0.010512 0.936910
vt 0.063138 0.936882
vt 0.063150 0.989507
vt 0.159100 0.989162
vt 0.159100 0.936551
vt 0.211713 0.936534
vt 0.211713 0.989179
vt 0.230016 0.989156
vt 0.230004 0.936530
vt 0.282630 0.936502
vt 0.282642 0.989128
vt 0.426829 0.936137
vt 0.427214 0.933924
vt 0.428656 0.934311
vt 0.429041 0.935753
vt 0.158715 0.991373
vt 0.157274 0.990987
vt 0.156889 0.989546
vt 0.227792 0.936146
vt 0.228178 0.934705
vt 0.229619 0.934318
vt 0.139729 0.989546
vt 0.139344 0.990987
vt 0.137903 0.991373
vt 0.426818 0.988762
vt 0.429041 0.989158
vt 0.428647 0.990602
vt 0.427199 0.990982
vt 0.229634 0.991376
vt 0.228186 0.990996
vt 0.227792 0.989552
vt 0.283012 0.934282
vt 0.284460 0.934662
vt 0.284854 0.936106
vt 0.213935 0.989569
vt 0.213548 0.991022
vt 0.212096 0.991413
vt 0.008300 0.936526
vt 0.008686 0.935084
vt 0.010127 0.934698
vt 0.284854 0.989512
vt 0.284468 0.990953
vt 0.283027 0.991340
vt 0.010142 0.991755
vt 0.008694 0.991375
vt 0.008300 0.989931
vt 0.084522 0.991413
vt 0.083070 0.991022
vt 0.082683 0.989569
vt 0.374203 0.936109
vt 0.371979 0.935712
vt 0.372374 0.934269
vt 0.373821 0.933889
vt 0.301035 0.991016
vt 0.299593 0.990629
vt 0.299207 0.989188
vt 0.156889 0.936167
vt 0.157274 0.934726
vt 0.158715 0.934339
vt 0.299207 0.935782
vt 0.299602 0.934338
vt 0.301050 0.933958
vt 0.374192 0.988734
vt 0.373806 0.990946
vt 0.372365 0.990560
vt 0.371979 0.989118
vt 0.137903 0.934339
vt 0.139344 0.934726
vt 0.139729 0.936167
vt 0.356270 0.989228
vt 0.355875 0.990672
vt 0.354428 0.991052
vt 0.063520 0.934662
vt 0.064968 0.935042
vt 0.065362 0.936485
vt 0.212096 0.934299
vt 0.213548 0.934691
vt 0.213935 0.936143
vt 0.082683 0.936143
vt 0.083070 0.934691
vt 0.084522 0.934299
vt 0.065362 0.989891
vt 0.064976 0.991333
vt 0.063535 0.991719
vt 0.354443 0.933994
vt 0.355884 0.934381
vt 0.356270 0.935822
vn -0.3416 -0.8756 -0.3416
vn 0.3416 -0.8756 -0.3416
vn 0.3416 -0.8756 0.3416
vn -0.3416 -0.8756 0.3416
vn -0.8756 -0.3416 0.3416
vn -0.8756 0.3416 0.3416
vn -0.8756 0.3416 -0.3416
vn -0.8756 -0.3416 -0.3416
vn 0.3416 -0.3416 0.8756
vn 0.3416 0.3416 0.8756
vn -0.3416 0.3416 0.8756
vn -0.3416 -0.3416 0.8756
vn 0.3416 0.8756 -0.3416
vn -0.3416 0.8756 -0.3416
vn -0.3416 0.8756 0.3416
vn 0.3416 0.8756 0.3416
vn 0.8756 -0.3416 -0.3416
vn 0.8756 0.3416 -0.3416
vn 0.8756 0.3416 0.3416
vn 0.8756 -0.3416 0.3416
vn 0.3416 0.3416 -0.8756
vn 0.3029 0.6739 -0.6739
vn 0.5773 0.5773 -0.5773
vn 0.6739 0.3029 -0.6739
vn 0.6739 0.6739 -0.3029
vn 0.3029 -0.6739 -0.6739
vn 0.5773 -0.5773 -0.5773
vn 0.6739 -0.6739 -0.3029
vn 0.3416 -0.3416 -0.8756
vn 0.6739 -0.3029 -0.6739
vn 0.6739 0.6739 0.3029
vn 0.5773 0.5773 0.5773
vn 0.6739 0.3029 0.6739
vn 0.3029 0.6739 0.6739
vn 0.6739 -0.3029 0.6739
vn 0.5773 -0.5773 0.5773
vn 0.6739 -0.6739 0.3029
vn 0.3029 -0.6739 0.6739
vn -0.3416 0.3416 -0.8756
vn -0.6739 0.3029 -0.6739
vn -0.5773 0.5773 -0.5773
vn -0.3029 0.6739 -0.6739
vn -0.6739 0.6739 -0.3029
vn -0.6739 -0.3029 -0.6739
vn -0.5773 -0.5773 -0.5773
vn -0.6739 -0.6739 -0.3029
vn -0.3416 -0.3416 -0.8756
vn -0.3029 -0.6739 -0.6739
vn -0.6739 0.3029 0.6739
vn -0.5773 0.5773 0.5773
vn -0.6739 0.6739 0.3029
vn -0.3029 0.6739 0.6739
vn -0.3029 -0.6739 0.6739
vn -0.5773 -0.5773 0.5773
vn -0.6739 -0.6739 0.3029
vn -0.6739 -0.3029 0.6739
usemtl stone_block
s 1
f 38/1/1 8/2/2 24/3/3 50/4/4
f 52/5/5 43/6/6 30/7/7 36/8/8
f 23/9/9 17/10/10 44/11/11 51/12/12
f 2/13/13 31/14/14 45/15/15 16/16/16
f 10/17/17 3/18/18 15/19/19 22/20/20
f 1/21/21 4/22/22 5/23/23 7/24/24
f 2/13/13 6/25/25 5/26/23 4/27/22
f 3/18/18 7/28/24 5/29/23 6/30/25
f 8/2/2 11/31/26 12/32/27 14/33/28
f 9/34/29 13/35/30 12/36/27 11/37/26
f 10/17/17 14/38/28 12/39/27 13/40/30
f 15/19/19 18/41/31 19/42/32 21/43/33
f 16/16/16 20/44/34 19/45/32 18/46/31
f 17/10/10 21/47/33 19/48/32 20/49/34
f 22/20/20 25/50/35 26/51/36 28/52/37
f 23/9/9 27/53/38 26/54/36 25/55/35
f 24/3/3 28/56/37 26/57/36 27/58/38
f 29/59/39 32/60/40 33/61/41 35/62/42
f 30/7/7 34/63/43 33/64/41 32/65/40
f 31/14/14 35/66/42 33/67/41 34/68/43
f 36/8/8 39/69/44 40/70/45 42/71/46
f 37/72/47 41/73/48 40/74/45 39/75/44
f 38/1/1 42/76/46 40/77/45 41/78/48
f 43/6/6 46/79/49 47/80/50 49/81/51
f 44/11/11 48/82/52 47/83/50 46/84/49
f 45/15/15 49/85/51 47/86/50 48/87/52
f 50/4/4 53/88/53 54/89/54 56/90/55
f 51/12/12 55/91/56 54/92/54 53/93/53
f 52/5/5 56/94/55 54/95/54 55/96/56
f 38/1/1 50/4/4 56/90/55 42/76/46
f 42/71/46 56/94/55 52/5/5 36/8/8
f 8/2/2 38/1/1 41/78/48 11/31/26
f 11/37/26 41/73/48 37/72/47 9/34/29
f 3/18/18 10/17/17 13/40/30 7/28/24
f 7/24/24 13/35/30 9/34/29 1/21/21
f 51/12/12 44/11/11 46/84/49 55/91/56
f 55/96/56 46/79/49 43/6/6 52/5/5
f 17/10/10 23/9/9 25/55/35 21/47/33
f 21/43/33 25/50/35 22/20/20 15/19/19
f 29/59/39 37/72/47 39/75/44 32/60/40
f 32/65/40 39/69/44 36/8/8 30/7/7
f 16/16/16 45/15/15 48/87/52 20/44/34
f 20/49/34 48/82/52 44/11/11 17/10/10
f 2/13/13 16/16/16 18/46/31 6/25/25
f 6/30/25 18/41/31 15/19/19 3/18/18
f 50/4/4 24/3/3 27/58/38 53/88/53
f 53/93/53 27/53/38 23/9/9 51/12/12
f 45/15/15 31/14/14 34/68/43 49/85/51
f 49/81/51 34/63/43 30/7/7 43/6/6
f 31/14/14 2/13/13 4/27/22 35/66/42
f 35/62/42 4/22/22 1/21/21 29/59/39
f 24/3/3 8/2/2 14/33/28 28/56/37
f 28/52/37 14/38/28 10/17/17 22/20/20
f 37/72/47 29/59/39 1/21/21 9/34/29
