# Blender v2.80 (sub 75) OBJ File: 'stone_blocks.blend'
# www.blender.org
mtllib stone_block_2x3.mtl
o stone_block_2x3_Cube.017
v 2.890000 0.890000 -2.000000
v 2.890000 1.000000 -1.890000
v 3.000000 0.890000 -1.890000
v 2.890000 0.945000 -1.945000
v 2.926667 0.926667 -1.926666
v 2.945000 0.945000 -1.890000
v 2.945000 0.890000 -1.945000
v 2.890000 -1.000000 -1.890000
v 2.890000 -0.890000 -2.000000
v 3.000000 -0.890000 -1.890000
v 2.890000 -0.945000 -1.945000
v 2.926667 -0.926667 -1.926666
v 2.945000 -0.890000 -1.945000
v 2.945000 -0.945000 -1.890000
v 3.000000 0.890000 1.890000
v 2.890000 1.000000 1.890000
v 2.890000 0.890000 2.000000
v 2.945000 0.945000 1.890000
v 2.926667 0.926667 1.926666
v 2.890000 0.945000 1.945000
v 2.945000 0.890000 1.945000
v 3.000000 -0.890000 1.890000
v 2.890000 -0.890000 2.000000
v 2.890000 -1.000000 1.890000
v 2.945000 -0.890000 1.945000
v 2.926667 -0.926667 1.926666
v 2.890000 -0.945000 1.945000
v 2.945000 -0.945000 1.890000
v -2.890000 0.890000 -2.000000
v -3.000000 0.890000 -1.890000
v -2.890000 1.000000 -1.890000
v -2.945000 0.890000 -1.945000
v -2.926667 0.926667 -1.926666
v -2.945000 0.945000 -1.890000
v -2.890000 0.945000 -1.945000
v -3.000000 -0.890000 -1.890000
v -2.890000 -0.890000 -2.000000
v -2.890000 -1.000000 -1.890000
v -2.945000 -0.890000 -1.945000
v -2.926667 -0.926667 -1.926666
v -2.890000 -0.945000 -1.945000
v -2.945000 -0.945000 -1.890000
v -3.000000 0.890000 1.890000
v -2.890000 0.890000 2.000000
v -2.890000 1.000000 1.890000
v -2.945000 0.890000 1.945000
v -2.926667 0.926667 1.926666
v -2.890000 0.945000 1.945000
v -2.945000 0.945000 1.890000
v -2.890000 -1.000000 1.890000
v -2.890000 -0.890000 2.000000
v -3.000000 -0.890000 1.890000
v -2.890000 -0.945000 1.945000
v -2.926667 -0.926667 1.926666
v -2.945000 -0.890000 1.945000
v -2.945000 -0.945000 1.890000
vt 0.728507 0.985869
vt 0.728508 0.813001
vt 0.841558 0.812996
vt 0.841557 0.985875
vt 0.822631 0.536850
vt 0.875900 0.536840
vt 0.875904 0.649975
vt 0.822636 0.649986
vt 0.724545 0.788963
vt 0.671280 0.788957
vt 0.671282 0.615967
vt 0.724548 0.615973
vt 0.596556 0.985711
vt 0.596556 0.812842
vt 0.709606 0.812837
vt 0.709606 0.985717
vt 0.823998 0.673179
vt 0.877267 0.673189
vt 0.877262 0.786325
vt 0.823994 0.786314
vt 0.801512 0.786927
vt 0.803743 0.787318
vt 0.803353 0.788774
vt 0.801898 0.789164
vt 0.596168 0.987939
vt 0.594717 0.987550
vt 0.594328 0.986099
vt 0.877654 0.670952
vt 0.879110 0.671343
vt 0.879500 0.672799
vt 0.726280 0.812612
vt 0.726669 0.811160
vt 0.728120 0.810772
vt 0.748246 0.786934
vt 0.747858 0.789177
vt 0.746400 0.788785
vt 0.746011 0.787326
vt 0.821760 0.672788
vt 0.822148 0.671327
vt 0.823608 0.670933
vt 0.879500 0.786716
vt 0.879112 0.788177
vt 0.877653 0.788571
vt 0.711837 0.986107
vt 0.711448 0.987562
vt 0.709993 0.987953
vt 0.670893 0.791194
vt 0.669438 0.790804
vt 0.669048 0.789348
vt 0.823606 0.788552
vt 0.822150 0.788161
vt 0.821760 0.786705
vt 0.726780 0.789356
vt 0.726391 0.790814
vt 0.724933 0.791206
vt 0.841945 0.810759
vt 0.843400 0.811150
vt 0.843789 0.812605
vt 0.801508 0.613937
vt 0.801896 0.611694
vt 0.803354 0.612086
vt 0.803743 0.613545
vt 0.878138 0.650366
vt 0.877748 0.651822
vt 0.876292 0.652212
vt 0.594328 0.812454
vt 0.594717 0.811002
vt 0.596169 0.810613
vt 0.822245 0.652232
vt 0.820786 0.651838
vt 0.820398 0.650377
vt 0.748242 0.613944
vt 0.746011 0.613553
vt 0.746401 0.612098
vt 0.747856 0.611707
vt 0.728120 0.988098
vt 0.726668 0.987709
vt 0.726280 0.986258
vt 0.876290 0.534594
vt 0.877750 0.534988
vt 0.878138 0.536448
vt 0.669048 0.615575
vt 0.669437 0.614116
vt 0.670894 0.613724
vt 0.709994 0.810601
vt 0.711448 0.810992
vt 0.711837 0.812447
vt 0.843789 0.986266
vt 0.843400 0.987721
vt 0.841945 0.988112
vt 0.724934 0.613737
vt 0.726390 0.614127
vt 0.726780 0.615582
vt 0.820398 0.536460
vt 0.820788 0.535003
vt 0.822244 0.534613
vn -0.3416 -0.8756 -0.3416
vn 0.3416 -0.8756 -0.3416
vn 0.3416 -0.8756 0.3416
vn -0.3416 -0.8756 0.3416
vn -0.8756 -0.3416 0.3416
vn -0.8756 0.3416 0.3416
vn -0.8756 0.3416 -0.3416
vn -0.8756 -0.3416 -0.3416
vn 0.3416 -0.3416 0.8756
vn 0.3416 0.3416 0.8756
vn -0.3416 0.3416 0.8756
vn -0.3416 -0.3416 0.8756
vn 0.3416 0.8756 -0.3416
vn -0.3416 0.8756 -0.3416
vn -0.3416 0.8756 0.3416
vn 0.3416 0.8756 0.3416
vn 0.8756 -0.3416 -0.3416
vn 0.8756 0.3416 -0.3416
vn 0.8756 0.3416 0.3416
vn 0.8756 -0.3416 0.3416
vn 0.3416 0.3416 -0.8756
vn 0.3029 0.6739 -0.6739
vn 0.5773 0.5773 -0.5773
vn 0.6739 0.3029 -0.6739
vn 0.6739 0.6739 -0.3029
vn 0.3029 -0.6739 -0.6739
vn 0.5773 -0.5773 -0.5773
vn 0.6739 -0.6739 -0.3029
vn 0.3416 -0.3416 -0.8756
vn 0.6739 -0.3029 -0.6739
vn 0.6739 0.6739 0.3029
vn 0.5773 0.5773 0.5773
vn 0.6739 0.3029 0.6739
vn 0.3029 0.6739 0.6739
vn 0.6739 -0.3029 0.6739
vn 0.5773 -0.5773 0.5773
vn 0.6739 -0.6739 0.3029
vn 0.3029 -0.6739 0.6739
vn -0.3416 0.3416 -0.8756
vn -0.6739 0.3029 -0.6739
vn -0.5773 0.5773 -0.5773
vn -0.3029 0.6739 -0.6739
vn -0.6739 0.6739 -0.3029
vn -0.6739 -0.3029 -0.6739
vn -0.5773 -0.5773 -0.5773
vn -0.6739 -0.6739 -0.3029
vn -0.3416 -0.3416 -0.8756
vn -0.3029 -0.6739 -0.6739
vn -0.6739 0.3029 0.6739
vn -0.5773 0.5773 0.5773
vn -0.6739 0.6739 0.3029
vn -0.3029 0.6739 0.6739
vn -0.3029 -0.6739 0.6739
vn -0.5773 -0.5773 0.5773
vn -0.6739 -0.6739 0.3029
vn -0.6739 -0.3029 0.6739
usemtl stone_block
s 1
f 38/1/1 8/2/2 24/3/3 50/4/4
f 52/5/5 43/6/6 30/7/7 36/8/8
f 23/9/9 17/10/10 44/11/11 51/12/12
f 2/13/13 31/14/14 45/15/15 16/16/16
f 10/17/17 3/18/18 15/19/19 22/20/20
f 1/21/21 4/22/22 5/23/23 7/24/24
f 2/13/13 6/25/25 5/26/23 4/27/22
f 3/18/18 7/28/24 5/29/23 6/30/25
f 8/2/2 11/31/26 12/32/27 14/33/28
f 9/34/29 13/35/30 12/36/27 11/37/26
f 10/17/17 14/38/28 12/39/27 13/40/30
f 15/19/19 18/41/31 19/42/32 21/43/33
f 16/16/16 20/44/34 19/45/32 18/46/31
f 17/10/10 21/47/33 19/48/32 20/49/34
f 22/20/20 25/50/35 26/51/36 28/52/37
f 23/9/9 27/53/38 26/54/36 25/55/35
f 24/3/3 28/56/37 26/57/36 27/58/38
f 29/59/39 32/60/40 33/61/41 35/62/42
f 30/7/7 34/63/43 33/64/41 32/65/40
f 31/14/14 35/66/42 33/67/41 34/68/43
f 36/8/8 39/69/44 40/70/45 42/71/46
f 37/72/47 41/73/48 40/74/45 39/75/44
f 38/1/1 42/76/46 40/77/45 41/78/48
f 43/6/6 46/79/49 47/80/50 49/81/51
f 44/11/11 48/82/52 47/83/50 46/84/49
f 45/15/15 49/85/51 47/86/50 48/87/52
f 50/4/4 53/88/53 54/89/54 56/90/55
f 51/12/12 55/91/56 54/92/54 53/93/53
f 52/5/5 56/94/55 54/95/54 55/96/56
f 38/1/1 50/4/4 56/90/55 42/76/46
f 42/71/46 56/94/55 52/5/5 36/8/8
f 8/2/2 38/1/1 41/78/48 11/31/26
f 11/37/26 41/73/48 37/72/47 9/34/29
f 3/18/18 10/17/17 13/40/30 7/28/24
f 7/24/24 13/35/30 9/34/29 1/21/21
f 51/12/12 44/11/11 46/84/49 55/91/56
f 55/96/56 46/79/49 43/6/6 52/5/5
f 17/10/10 23/9/9 25/55/35 21/47/33
f 21/43/33 25/50/35 22/20/20 15/19/19
f 29/59/39 37/72/47 39/75/44 32/60/40
f 32/65/40 39/69/44 36/8/8 30/7/7
f 16/16/16 45/15/15 48/87/52 20/44/34
f 20/49/34 48/82/52 44/11/11 17/10/10
f 2/13/13 16/16/16 18/46/31 6/25/25
f 6/30/25 18/41/31 15/19/19 3/18/18
f 50/4/4 24/3/3 27/58/38 53/88/53
f 53/93/53 27/53/38 23/9/9 51/12/12
f 45/15/15 31/14/14 34/68/43 49/85/51
f 49/81/51 34/63/43 30/7/7 43/6/6
f 31/14/14 2/13/13 4/27/22 35/66/42
f 35/62/42 4/22/22 1/21/21 29/59/39
f 24/3/3 8/2/2 14/33/28 28/56/37
f 28/52/37 14/38/28 10/17/17 22/20/20
f 37/72/47 29/59/39 1/21/21 9/34/29
