# Blender v2.80 (sub 75) OBJ File: 'stone_blocks.blend'
# www.blender.org
mtllib stone_block_4x4.mtl
o stone_block_4x4_Cube.021
v 3.890000 0.890000 -4.000000
v 3.890000 1.000000 -3.890000
v 4.000000 0.890000 -3.890000
v 3.890000 0.945000 -3.945000
v 3.926667 0.926667 -3.926667
v 3.945000 0.945000 -3.890000
v 3.945000 0.890000 -3.945000
v 3.890000 -1.000000 -3.890000
v 3.890000 -0.890000 -4.000000
v 4.000000 -0.890000 -3.890000
v 3.890000 -0.945000 -3.945000
v 3.926667 -0.926667 -3.926667
v 3.945000 -0.890000 -3.945000
v 3.945000 -0.945000 -3.890000
v 4.000000 0.890000 3.890000
v 3.890000 1.000000 3.890000
v 3.890000 0.890000 4.000000
v 3.945000 0.945000 3.890000
v 3.926667 0.926667 3.926667
v 3.890000 0.945000 3.945000
v 3.945000 0.890000 3.945000
v 4.000000 -0.890000 3.890000
v 3.890000 -0.890000 4.000000
v 3.890000 -1.000000 3.890000
v 3.945000 -0.890000 3.945000
v 3.926667 -0.926667 3.926667
v 3.890000 -0.945000 3.945000
v 3.945000 -0.945000 3.890000
v -3.890000 0.890000 -4.000000
v -4.000000 0.890000 -3.890000
v -3.890000 1.000000 -3.890000
v -3.945000 0.890000 -3.945000
v -3.926667 0.926667 -3.926667
v -3.945000 0.945000 -3.890000
v -3.890000 0.945000 -3.945000
v -4.000000 -0.890000 -3.890000
v -3.890000 -0.890000 -4.000000
v -3.890000 -1.000000 -3.890000
v -3.945000 -0.890000 -3.945000
v -3.926667 -0.926667 -3.926667
v -3.890000 -0.945000 -3.945000
v -3.945000 -0.945000 -3.890000
v -4.000000 0.890000 3.890000
v -3.890000 0.890000 4.000000
v -3.890000 1.000000 3.890000
v -3.945000 0.890000 3.945000
v -3.926667 0.926667 3.926667
v -3.890000 0.945000 3.945000
v -3.945000 0.945000 3.890000
v -3.890000 -1.000000 3.890000
v -3.890000 -0.890000 4.000000
v -4.000000 -0.890000 3.890000
v -3.890000 -0.945000 3.945000
v -3.926667 -0.926667 3.926667
v -3.945000 -0.890000 3.945000
v -3.945000 -0.945000 3.890000
vt 0.284607 0.259547
vt 0.284608 0.026282
vt 0.517873 0.026278
vt 0.517873 0.259552
vt 0.625682 0.026952
vt 0.679102 0.026948
vt 0.679105 0.260474
vt 0.625685 0.260479
vt 0.527302 0.280487
vt 0.527297 0.333908
vt 0.293771 0.333906
vt 0.293775 0.280486
vt 0.021731 0.258380
vt 0.021731 0.025115
vt 0.254996 0.025111
vt 0.254996 0.258385
vt 0.941101 0.019228
vt 0.941097 0.072648
vt 0.707570 0.072647
vt 0.707574 0.019226
vt 0.598100 0.260474
vt 0.600337 0.260867
vt 0.599946 0.262326
vt 0.598487 0.262717
vt 0.021342 0.260612
vt 0.019888 0.260223
vt 0.019499 0.258769
vt 0.943339 0.073036
vt 0.942948 0.074495
vt 0.941489 0.074886
vt 0.282376 0.025893
vt 0.282765 0.024440
vt 0.284218 0.024050
vt 0.544679 0.260479
vt 0.544291 0.262727
vt 0.542830 0.262334
vt 0.542439 0.260873
vt 0.941494 0.016989
vt 0.942956 0.017379
vt 0.943349 0.018840
vt 0.707176 0.074886
vt 0.705715 0.074496
vt 0.705322 0.073035
vt 0.257230 0.258775
vt 0.256841 0.260231
vt 0.255385 0.260622
vt 0.529540 0.334295
vt 0.529149 0.335754
vt 0.527690 0.336145
vt 0.705332 0.018839
vt 0.705723 0.017380
vt 0.707182 0.016989
vt 0.527695 0.278248
vt 0.529157 0.278638
vt 0.529549 0.280100
vt 0.518262 0.024041
vt 0.519718 0.024432
vt 0.520107 0.025888
vt 0.598097 0.026948
vt 0.598485 0.024700
vt 0.599946 0.025092
vt 0.600337 0.026554
vt 0.681342 0.260867
vt 0.680951 0.262326
vt 0.679492 0.262717
vt 0.019499 0.024726
vt 0.019888 0.023272
vt 0.021342 0.022883
vt 0.625297 0.262727
vt 0.623835 0.262334
vt 0.623444 0.260873
vt 0.544676 0.026952
vt 0.542439 0.026560
vt 0.542830 0.025101
vt 0.544289 0.024710
vt 0.284218 0.261779
vt 0.282765 0.261390
vt 0.282376 0.259936
vt 0.679490 0.024700
vt 0.680951 0.025092
vt 0.681342 0.026554
vt 0.293377 0.336145
vt 0.291916 0.335755
vt 0.291523 0.334294
vt 0.255385 0.022873
vt 0.256841 0.023264
vt 0.257230 0.024720
vt 0.520107 0.259942
vt 0.519718 0.261398
vt 0.518262 0.261789
vt 0.291533 0.280098
vt 0.291924 0.278639
vt 0.293383 0.278248
vt 0.623444 0.026560
vt 0.623835 0.025101
vt 0.625294 0.024710
vn -0.3416 -0.8756 -0.3416
vn 0.3416 -0.8756 -0.3416
vn 0.3416 -0.8756 0.3416
vn -0.3416 -0.8756 0.3416
vn -0.8756 -0.3416 0.3416
vn -0.8756 0.3416 0.3416
vn -0.8756 0.3416 -0.3416
vn -0.8756 -0.3416 -0.3416
vn 0.3416 -0.3416 0.8756
vn 0.3416 0.3416 0.8756
vn -0.3416 0.3416 0.8756
vn -0.3416 -0.3416 0.8756
vn 0.3416 0.8756 -0.3416
vn -0.3416 0.8756 -0.3416
vn -0.3416 0.8756 0.3416
vn 0.3416 0.8756 0.3416
vn 0.8756 -0.3416 -0.3416
vn 0.8756 0.3416 -0.3416
vn 0.8756 0.3416 0.3416
vn 0.8756 -0.3416 0.3416
vn 0.3416 0.3416 -0.8756
vn 0.3029 0.6739 -0.6739
vn 0.5773 0.5773 -0.5773
vn 0.6739 0.3029 -0.6739
vn 0.6739 0.6739 -0.3029
vn 0.3029 -0.6739 -0.6739
vn 0.5773 -0.5773 -0.5773
vn 0.6739 -0.6739 -0.3029
vn 0.3416 -0.3416 -0.8756
vn 0.6739 -0.3029 -0.6739
vn 0.6739 0.6739 0.3029
vn 0.5773 0.5773 0.5773
vn 0.6739 0.3029 0.6739
vn 0.3029 0.6739 0.6739
vn 0.6739 -0.3029 0.6739
vn 0.5773 -0.5773 0.5773
vn 0.6739 -0.6739 0.3029
vn 0.3029 -0.6739 0.6739
vn -0.3416 0.3416 -0.8756
vn -0.6739 0.3029 -0.6739
vn -0.5773 0.5773 -0.5773
vn -0.3029 0.6739 -0.6739
vn -0.6739 0.6739 -0.3029
vn -0.6739 -0.3029 -0.6739
vn -0.5773 -0.5773 -0.5773
vn -0.6739 -0.6739 -0.3029
vn -0.3416 -0.3416 -0.8756
vn -0.3029 -0.6739 -0.6739
vn -0.6739 0.3029 0.6739
vn -0.5773 0.5773 0.5773
vn -0.6739 0.6739 0.3029
vn -0.3029 0.6739 0.6739
vn -0.3029 -0.6739 0.6739
vn -0.5773 -0.5773 0.5773
vn -0.6739 -0.6739 0.3029
vn -0.6739 -0.3029 0.6739
usemtl stone_block
s 1
f 38/1/1 8/2/2 24/3/3 50/4/4
f 52/5/5 43/6/6 30/7/7 36/8/8
f 23/9/9 17/10/10 44/11/11 51/12/12
f 2/13/13 31/14/14 45/15/15 16/16/16
f 10/17/17 3/18/18 15/19/19 22/20/20
f 1/21/21 4/22/22 5/23/23 7/24/24
f 2/13/13 6/25/25 5/26/23 4/27/22
f 3/18/18 7/28/24 5/29/23 6/30/25
f 8/2/2 11/31/26 12/32/27 14/33/28
f 9/34/29 13/35/30 12/36/27 11/37/26
f 10/17/17 14/38/28 12/39/27 13/40/30
f 15/19/19 18/41/31 19/42/32 21/43/33
f 16/16/16 20/44/34 19/45/32 18/46/31
f 17/10/10 21/47/33 19/48/32 20/49/34
f 22/20/20 25/50/35 26/51/36 28/52/37
f 23/9/9 27/53/38 26/54/36 25/55/35
f 24/3/3 28/56/37 26/57/36 27/58/38
f 29/59/39 32/60/40 33/61/41 35/62/42
f 30/7/7 34/63/43 33/64/41 32/65/40
f 31/14/14 35/66/42 33/67/41 34/68/43
f 36/8/8 39/69/44 40/70/45 42/71/46
f 37/72/47 41/73/48 40/74/45 39/75/44
f 38/1/1 42/76/46 40/77/45 41/78/48
f 43/6/6 46/79/49 47/80/50 49/81/51
f 44/11/11 48/82/52 47/83/50 46/84/49
f 45/15/15 49/85/51 47/86/50 48/87/52
f 50/4/4 53/88/53 54/89/54 56/90/55
f 51/12/12 55/91/56 54/92/54 53/93/53
f 52/5/5 56/94/55 54/95/54 55/96/56
f 38/1/1 50/4/4 56/90/55 42/76/46
f 42/71/46 56/94/55 52/5/5 36/8/8
f 8/2/2 38/1/1 41/78/48 11/31/26
f 11/37/26 41/73/48 37/72/47 9/34/29
f 3/18/18 10/17/17 13/40/30 7/28/24
f 7/24/24 13/35/30 9/34/29 1/21/21
f 51/12/12 44/11/11 46/84/49 55/91/56
f 55/96/56 46/79/49 43/6/6 52/5/5
f 17/10/10 23/9/9 25/55/35 21/47/33
f 21/43/33 25/50/35 22/20/20 15/19/19
f 29/59/39 37/72/47 39/75/44 32/60/40
f 32/65/40 39/69/44 36/8/8 30/7/7
f 16/16/16 45/15/15 48/87/52 20/44/34
f 20/49/34 48/82/52 44/11/11 17/10/10
f 2/13/13 16/16/16 18/46/31 6/25/25
f 6/30/25 18/41/31 15/19/19 3/18/18
f 50/4/4 24/3/3 27/58/38 53/88/53
f 53/93/53 27/53/38 23/9/9 51/12/12
f 45/15/15 31/14/14 34/68/43 49/85/51
f 49/81/51 34/63/43 30/7/7 43/6/6
f 31/14/14 2/13/13 4/27/22 35/66/42
f 35/62/42 4/22/22 1/21/21 29/59/39
f 24/3/3 8/2/2 14/33/28 28/56/37
f 28/52/37 14/38/28 10/17/17 22/20/20
f 37/72/47 29/59/39 1/21/21 9/34/29
