# Blender v2.80 (sub 75) OBJ File: 'stone_blocks.blend'
# www.blender.org
mtllib stone_block_1x2.mtl
o stone_block_1x2_Cube.014
v 1.890000 0.890000 -1.000000
v 1.890000 1.000000 -0.890000
v 2.000000 0.890000 -0.890000
v 1.890000 0.945000 -0.945000
v 1.926666 0.926667 -0.926667
v 1.945000 0.945000 -0.890000
v 1.945000 0.890000 -0.945000
v 1.890000 -1.000000 -0.890000
v 1.890000 -0.890000 -1.000000
v 2.000000 -0.890000 -0.890000
v 1.890000 -0.945000 -0.945000
v 1.926666 -0.926667 -0.926667
v 1.945000 -0.890000 -0.945000
v 1.945000 -0.945000 -0.890000
v 2.000000 0.890000 0.890000
v 1.890000 1.000000 0.890000
v 1.890000 0.890000 1.000000
v 1.945000 0.945000 0.890000
v 1.926666 0.926667 0.926667
v 1.890000 0.945000 0.945000
v 1.945000 0.890000 0.945000
v 2.000000 -0.890000 0.890000
v 1.890000 -0.890000 1.000000
v 1.890000 -1.000000 0.890000
v 1.945000 -0.890000 0.945000
v 1.926666 -0.926667 0.926667
v 1.890000 -0.945000 0.945000
v 1.945000 -0.945000 0.890000
v -1.890000 0.890000 -1.000000
v -2.000000 0.890000 -0.890000
v -1.890000 1.000000 -0.890000
v -1.945000 0.890000 -0.945000
v -1.926666 0.926667 -0.926667
v -1.945000 0.945000 -0.890000
v -1.890000 0.945000 -0.945000
v -2.000000 -0.890000 -0.890000
v -1.890000 -0.890000 -1.000000
v -1.890000 -1.000000 -0.890000
v -1.945000 -0.890000 -0.945000
v -1.926666 -0.926667 -0.926667
v -1.890000 -0.945000 -0.945000
v -1.945000 -0.945000 -0.890000
v -2.000000 0.890000 0.890000
v -1.890000 0.890000 1.000000
v -1.890000 1.000000 0.890000
v -1.945000 0.890000 0.945000
v -1.926666 0.926667 0.926667
v -1.890000 0.945000 0.945000
v -1.945000 0.945000 0.890000
v -1.890000 -1.000000 0.890000
v -1.890000 -0.890000 1.000000
v -2.000000 -0.890000 0.890000
v -1.890000 -0.945000 0.945000
v -1.926666 -0.926667 0.926667
v -1.945000 -0.890000 0.945000
v -1.945000 -0.945000 0.890000
vt 0.520436 0.918581
vt 0.520435 0.806007
vt 0.573439 0.805999
vt 0.573439 0.918589
vt 0.572967 0.936205
vt 0.572955 0.989219
vt 0.519941 0.989191
vt 0.519952 0.936177
vt 0.446061 0.806166
vt 0.499067 0.806176
vt 0.499062 0.918755
vt 0.446056 0.918744
vt 0.427201 0.805720
vt 0.427202 0.918294
vt 0.374198 0.918302
vt 0.374198 0.805712
vt 0.445809 0.989762
vt 0.445798 0.936748
vt 0.498812 0.936720
vt 0.498823 0.989734
vt 0.301449 0.805278
vt 0.299227 0.804889
vt 0.299615 0.803440
vt 0.301064 0.803052
vt 0.427587 0.803495
vt 0.429036 0.803883
vt 0.429424 0.805332
vt 0.443569 0.936362
vt 0.443957 0.934909
vt 0.445409 0.934520
vt 0.518213 0.805619
vt 0.518601 0.804170
vt 0.520050 0.803782
vt 0.354455 0.805267
vt 0.354844 0.803032
vt 0.356296 0.803424
vt 0.356683 0.804878
vt 0.445425 0.991999
vt 0.443966 0.991616
vt 0.443569 0.990162
vt 0.499197 0.934484
vt 0.500655 0.934867
vt 0.501052 0.936321
vt 0.371971 0.805321
vt 0.372359 0.803866
vt 0.373813 0.803475
vt 0.499452 0.803950
vt 0.500901 0.804339
vt 0.501289 0.805788
vt 0.501052 0.990121
vt 0.500664 0.991573
vt 0.499212 0.991963
vt 0.443833 0.805777
vt 0.444220 0.804323
vt 0.445672 0.803931
vt 0.573824 0.803762
vt 0.575278 0.804152
vt 0.575666 0.805607
vt 0.301454 0.917856
vt 0.301065 0.920091
vt 0.299613 0.919699
vt 0.299227 0.918245
vt 0.519553 0.991420
vt 0.518101 0.991030
vt 0.517712 0.989578
vt 0.429424 0.918682
vt 0.429036 0.920131
vt 0.427587 0.920520
vt 0.517712 0.935778
vt 0.518109 0.934324
vt 0.519568 0.933941
vt 0.354460 0.917846
vt 0.356683 0.918234
vt 0.356295 0.919683
vt 0.354845 0.920072
vt 0.520050 0.920806
vt 0.518601 0.920418
vt 0.518213 0.918969
vt 0.575196 0.989619
vt 0.574798 0.991073
vt 0.573340 0.991456
vt 0.501289 0.919144
vt 0.500903 0.920598
vt 0.499451 0.920990
vt 0.373813 0.920539
vt 0.372359 0.920149
vt 0.371971 0.918694
vt 0.575666 0.918980
vt 0.575278 0.920435
vt 0.573824 0.920826
vt 0.445670 0.920970
vt 0.444221 0.920582
vt 0.443833 0.919133
vt 0.573355 0.933977
vt 0.574807 0.934366
vt 0.575196 0.935819
vn -0.3416 -0.8756 -0.3416
vn 0.3416 -0.8756 -0.3416
vn 0.3416 -0.8756 0.3416
vn -0.3416 -0.8756 0.3416
vn -0.8756 -0.3416 0.3416
vn -0.8756 0.3416 0.3416
vn -0.8756 0.3416 -0.3416
vn -0.8756 -0.3416 -0.3416
vn 0.3416 -0.3416 0.8756
vn 0.3416 0.3416 0.8756
vn -0.3416 0.3416 0.8756
vn -0.3416 -0.3416 0.8756
vn 0.3416 0.8756 -0.3416
vn -0.3416 0.8756 -0.3416
vn -0.3416 0.8756 0.3416
vn 0.3416 0.8756 0.3416
vn 0.8756 -0.3416 -0.3416
vn 0.8756 0.3416 -0.3416
vn 0.8756 0.3416 0.3416
vn 0.8756 -0.3416 0.3416
vn 0.3416 0.3416 -0.8756
vn 0.3029 0.6739 -0.6739
vn 0.5773 0.5773 -0.5773
vn 0.6739 0.3029 -0.6739
vn 0.6739 0.6739 -0.3029
vn 0.3029 -0.6739 -0.6739
vn 0.5773 -0.5773 -0.5773
vn 0.6739 -0.6739 -0.3029
vn 0.3416 -0.3416 -0.8756
vn 0.6739 -0.3029 -0.6739
vn 0.6739 0.6739 0.3029
vn 0.5773 0.5773 0.5773
vn 0.6739 0.3029 0.6739
vn 0.3029 0.6739 0.6739
vn 0.6739 -0.3029 0.6739
vn 0.5773 -0.5773 0.5773
vn 0.6739 -0.6739 0.3029
vn 0.3029 -0.6739 0.6739
vn -0.3416 0.3416 -0.8756
vn -0.6739 0.3029 -0.6739
vn -0.5773 0.5773 -0.5773
vn -0.3029 0.6739 -0.6739
vn -0.6739 0.6739 -0.3029
vn -0.6739 -0.3029 -0.6739
vn -0.5773 -0.5773 -0.5773
vn -0.6739 -0.6739 -0.3029
vn -0.3416 -0.3416 -0.8756
vn -0.3029 -0.6739 -0.6739
vn -0.6739 0.3029 0.6739
vn -0.5773 0.5773 0.5773
vn -0.6739 0.6739 0.3029
vn -0.3029 0.6739 0.6739
vn -0.3029 -0.6739 0.6739
vn -0.5773 -0.5773 0.5773
vn -0.6739 -0.6739 0.3029
vn -0.6739 -0.3029 0.6739
usemtl stone_block
s 1
f 38/1/1 8/2/2 24/3/3 50/4/4
f 52/5/5 43/6/6 30/7/7 36/8/8
f 23/9/9 17/10/10 44/11/11 51/12/12
f 2/13/13 31/14/14 45/15/15 16/16/16
f 10/17/17 3/18/18 15/19/19 22/20/20
f 1/21/21 4/22/22 5/23/23 7/24/24
f 2/13/13 6/25/25 5/26/23 4/27/22
f 3/18/18 7/28/24 5/29/23 6/30/25
f 8/2/2 11/31/26 12/32/27 14/33/28
f 9/34/29 13/35/30 12/36/27 11/37/26
f 10/17/17 14/38/28 12/39/27 13/40/30
f 15/19/19 18/41/31 19/42/32 21/43/33
f 16/16/16 20/44/34 19/45/32 18/46/31
f 17/10/10 21/47/33 19/48/32 20/49/34
f 22/20/20 25/50/35 26/51/36 28/52/37
f 23/9/9 27/53/38 26/54/36 25/55/35
f 24/3/3 28/56/37 26/57/36 27/58/38
f 29/59/39 32/60/40 33/61/41 35/62/42
f 30/7/7 34/63/43 33/64/41 32/65/40
f 31/14/14 35/66/42 33/67/41 34/68/43
f 36/8/8 39/69/44 40/70/45 42/71/46
f 37/72/47 41/73/48 40/74/45 39/75/44
f 38/1/1 42/76/46 40/77/45 41/78/48
f 43/6/6 46/79/49 47/80/50 49/81/51
f 44/11/11 48/82/52 47/83/50 46/84/49
f 45/15/15 49/85/51 47/86/50 48/87/52
f 50/4/4 53/88/53 54/89/54 56/90/55
f 51/12/12 55/91/56 54/92/54 53/93/53
f 52/5/5 56/94/55 54/95/54 55/96/56
f 38/1/1 50/4/4 56/90/55 42/76/46
f 42/71/46 56/94/55 52/5/5 36/8/8
f 8/2/2 38/1/1 41/78/48 11/31/26
f 11/37/26 41/73/48 37/72/47 9/34/29
f 3/18/18 10/17/17 13/40/30 7/28/24
f 7/24/24 13/35/30 9/34/29 1/21/21
f 51/12/12 44/11/11 46/84/49 55/91/56
f 55/96/56 46/79/49 43/6/6 52/5/5
f 17/10/10 23/9/9 25/55/35 21/47/33
f 21/43/33 25/50/35 22/20/20 15/19/19
f 29/59/39 37/72/47 39/75/44 32/60/40
f 32/65/40 39/69/44 36/8/8 30/7/7
f 16/16/16 45/15/15 48/87/52 20/44/34
f 20/49/34 48/82/52 44/11/11 17/10/10
f 2/13/13 16/16/16 18/46/31 6/25/25
f 6/30/25 18/41/31 15/19/19 3/18/18
f 50/4/4 24/3/3 27/58/38 53/88/53
f 53/93/53 27/53/38 23/9/9 51/12/12
f 45/15/15 31/14/14 34/68/43 49/85/51
f 49/81/51 34/63/43 30/7/7 43/6/6
f 31/14/14 2/13/13 4/27/22 35/66/42
f 35/62/42 4/22/22 1/21/21 29/59/39
f 24/3/3 8/2/2 14/33/28 28/56/37
f 28/52/37 14/38/28 10/17/17 22/20/20
f 37/72/47 29/59/39 1/21/21 9/34/29
