# Blender v2.80 (sub 75) OBJ File: 'stone_blocks.blend'
# www.blender.org
mtllib stone_block_3x3.mtl
o stone_block_3x3_Cube.018
v 2.890000 0.890000 -3.000000
v 2.890000 1.000000 -2.890000
v 3.000000 0.890000 -2.890000
v 2.890000 0.945000 -2.945000
v 2.926667 0.926667 -2.926667
v 2.945000 0.945000 -2.890000
v 2.945000 0.890000 -2.945000
v 2.890000 -1.000000 -2.890000
v 2.890000 -0.890000 -3.000000
v 3.000000 -0.890000 -2.890000
v 2.890000 -0.945000 -2.945000
v 2.926667 -0.926667 -2.926667
v 2.945000 -0.890000 -2.945000
v 2.945000 -0.945000 -2.890000
v 3.000000 0.890000 2.890000
v 2.890000 1.000000 2.890000
v 2.890000 0.890000 3.000000
v 2.945000 0.945000 2.890000
v 2.926667 0.926667 2.926667
v 2.890000 0.945000 2.945000
v 2.945000 0.890000 2.945000
v 3.000000 -0.890000 2.890000
v 2.890000 -0.890000 3.000000
v 2.890000 -1.000000 2.890000
v 2.945000 -0.890000 2.945000
v 2.926667 -0.926667 2.926667
v 2.890000 -0.945000 2.945000
v 2.945000 -0.945000 2.890000
v -2.890000 0.890000 -3.000000
v -3.000000 0.890000 -2.890000
v -2.890000 1.000000 -2.890000
v -2.945000 0.890000 -2.945000
v -2.926667 0.926667 -2.926667
v -2.945000 0.945000 -2.890000
v -2.890000 0.945000 -2.945000
v -3.000000 -0.890000 -2.890000
v -2.890000 -0.890000 -3.000000
v -2.890000 -1.000000 -2.890000
v -2.945000 -0.890000 -2.945000
v -2.926667 -0.926667 -2.926667
v -2.890000 -0.945000 -2.945000
v -2.945000 -0.945000 -2.890000
v -3.000000 0.890000 2.890000
v -2.890000 0.890000 3.000000
v -2.890000 1.000000 2.890000
v -2.945000 0.890000 2.945000
v -2.926667 0.926667 2.926667
v -2.890000 0.945000 2.945000
v -2.945000 0.945000 2.890000
v -2.890000 -1.000000 2.890000
v -2.890000 -0.890000 3.000000
v -3.000000 -0.890000 2.890000
v -2.890000 -0.945000 2.945000
v -2.926667 -0.926667 2.926667
v -2.945000 -0.890000 2.945000
v -2.945000 -0.945000 2.890000
vt 0.195057 0.472384
vt 0.195057 0.645365
vt 0.022076 0.645370
vt 0.022077 0.472378
vt 0.372719 0.412014
vt 0.426031 0.412008
vt 0.426035 0.585149
vt 0.372723 0.585156
vt 0.268173 0.647001
vt 0.214861 0.646995
vt 0.214864 0.473853
vt 0.268176 0.473860
vt 0.194573 0.280219
vt 0.194572 0.453199
vt 0.021592 0.453204
vt 0.021592 0.280213
vt 0.267784 0.454839
vt 0.214472 0.454833
vt 0.214474 0.281691
vt 0.267786 0.281697
vt 0.353694 0.585742
vt 0.355927 0.586133
vt 0.355537 0.587589
vt 0.354080 0.587980
vt 0.194961 0.277990
vt 0.196413 0.278379
vt 0.196801 0.279830
vt 0.214085 0.457071
vt 0.212628 0.456681
vt 0.212238 0.455224
vt 0.197286 0.645753
vt 0.196897 0.647204
vt 0.195446 0.647593
vt 0.300382 0.585748
vt 0.299993 0.587993
vt 0.298534 0.587601
vt 0.298144 0.586141
vt 0.270021 0.455231
vt 0.269631 0.456691
vt 0.268172 0.457084
vt 0.212238 0.281299
vt 0.212627 0.279839
vt 0.214086 0.279446
vt 0.019360 0.279823
vt 0.019749 0.278367
vt 0.021204 0.277977
vt 0.214474 0.649233
vt 0.213017 0.648843
vt 0.212627 0.647386
vt 0.268173 0.279459
vt 0.269630 0.279849
vt 0.270021 0.281306
vt 0.270410 0.647394
vt 0.270020 0.648853
vt 0.268561 0.649246
vt 0.021688 0.647606
vt 0.020233 0.647215
vt 0.019844 0.645760
vt 0.353690 0.412600
vt 0.354078 0.410355
vt 0.355537 0.410748
vt 0.355927 0.412208
vt 0.428268 0.585541
vt 0.427878 0.586997
vt 0.426422 0.587387
vt 0.196801 0.453587
vt 0.196412 0.455039
vt 0.194961 0.455428
vt 0.372334 0.587401
vt 0.370875 0.587008
vt 0.370485 0.585548
vt 0.300378 0.412607
vt 0.298144 0.412215
vt 0.298534 0.410759
vt 0.299991 0.410369
vt 0.195446 0.470155
vt 0.196897 0.470544
vt 0.197286 0.471996
vt 0.426419 0.409763
vt 0.427879 0.410155
vt 0.428268 0.411615
vt 0.212627 0.473461
vt 0.213016 0.472001
vt 0.214475 0.471609
vt 0.021203 0.455441
vt 0.019749 0.455050
vt 0.019360 0.453595
vt 0.019844 0.471988
vt 0.020233 0.470533
vt 0.021688 0.470142
vt 0.268562 0.471621
vt 0.270019 0.472012
vt 0.270410 0.473468
vt 0.370485 0.411623
vt 0.370876 0.410167
vt 0.372332 0.409776
vn -0.3416 -0.8756 -0.3416
vn 0.3416 -0.8756 -0.3416
vn 0.3416 -0.8756 0.3416
vn -0.3416 -0.8756 0.3416
vn -0.8756 -0.3416 0.3416
vn -0.8756 0.3416 0.3416
vn -0.8756 0.3416 -0.3416
vn -0.8756 -0.3416 -0.3416
vn 0.3416 -0.3416 0.8756
vn 0.3416 0.3416 0.8756
vn -0.3416 0.3416 0.8756
vn -0.3416 -0.3416 0.8756
vn 0.3416 0.8756 -0.3416
vn -0.3416 0.8756 -0.3416
vn -0.3416 0.8756 0.3416
vn 0.3416 0.8756 0.3416
vn 0.8756 -0.3416 -0.3416
vn 0.8756 0.3416 -0.3416
vn 0.8756 0.3416 0.3416
vn 0.8756 -0.3416 0.3416
vn 0.3416 0.3416 -0.8756
vn 0.3029 0.6739 -0.6739
vn 0.5773 0.5773 -0.5773
vn 0.6739 0.3029 -0.6739
vn 0.6739 0.6739 -0.3029
vn 0.3029 -0.6739 -0.6739
vn 0.5773 -0.5773 -0.5773
vn 0.6739 -0.6739 -0.3029
vn 0.3416 -0.3416 -0.8756
vn 0.6739 -0.3029 -0.6739
vn 0.6739 0.6739 0.3029
vn 0.5773 0.5773 0.5773
vn 0.6739 0.3029 0.6739
vn 0.3029 0.6739 0.6739
vn 0.6739 -0.3029 0.6739
vn 0.5773 -0.5773 0.5773
vn 0.6739 -0.6739 0.3029
vn 0.3029 -0.6739 0.6739
vn -0.3416 0.3416 -0.8756
vn -0.6739 0.3029 -0.6739
vn -0.5773 0.5773 -0.5773
vn -0.3029 0.6739 -0.6739
vn -0.6739 0.6739 -0.3029
vn -0.6739 -0.3029 -0.6739
vn -0.5773 -0.5773 -0.5773
vn -0.6739 -0.6739 -0.3029
vn -0.3416 -0.3416 -0.8756
vn -0.3029 -0.6739 -0.6739
vn -0.6739 0.3029 0.6739
vn -0.5773 0.5773 0.5773
vn -0.6739 0.6739 0.3029
vn -0.3029 0.6739 0.6739
vn -0.3029 -0.6739 0.6739
vn -0.5773 -0.5773 0.5773
vn -0.6739 -0.6739 0.3029
vn -0.6739 -0.3029 0.6739
usemtl stone_block
s 1
f 38/1/1 8/2/2 24/3/3 50/4/4
f 52/5/5 43/6/6 30/7/7 36/8/8
f 23/9/9 17/10/10 44/11/11 51/12/12
f 2/13/13 31/14/14 45/15/15 16/16/16
f 10/17/17 3/18/18 15/19/19 22/20/20
f 1/21/21 4/22/22 5/23/23 7/24/24
f 2/13/13 6/25/25 5/26/23 4/27/22
f 3/18/18 7/28/24 5/29/23 6/30/25
f 8/2/2 11/31/26 12/32/27 14/33/28
f 9/34/29 13/35/30 12/36/27 11/37/26
f 10/17/17 14/38/28 12/39/27 13/40/30
f 15/19/19 18/41/31 19/42/32 21/43/33
f 16/16/16 20/44/34 19/45/32 18/46/31
f 17/10/10 21/47/33 19/48/32 20/49/34
f 22/20/20 25/50/35 26/51/36 28/52/37
f 23/9/9 27/53/38 26/54/36 25/55/35
f 24/3/3 28/56/37 26/57/36 27/58/38
f 29/59/39 32/60/40 33/61/41 35/62/42
f 30/7/7 34/63/43 33/64/41 32/65/40
f 31/14/14 35/66/42 33/67/41 34/68/43
f 36/8/8 39/69/44 40/70/45 42/71/46
f 37/72/47 41/73/48 40/74/45 39/75/44
f 38/1/1 42/76/46 40/77/45 41/78/48
f 43/6/6 46/79/49 47/80/50 49/81/51
f 44/11/11 48/82/52 47/83/50 46/84/49
f 45/15/15 49/85/51 47/86/50 48/87/52
f 50/4/4 53/88/53 54/89/54 56/90/55
f 51/12/12 55/91/56 54/92/54 53/93/53
f 52/5/5 56/94/55 54/95/54 55/96/56
f 38/1/1 50/4/4 56/90/55 42/76/46
f 42/71/46 56/94/55 52/5/5 36/8/8
f 8/2/2 38/1/1 41/78/48 11/31/26
f 11/37/26 41/73/48 37/72/47 9/34/29
f 3/18/18 10/17/17 13/40/30 7/28/24
f 7/24/24 13/35/30 9/34/29 1/21/21
f 51/12/12 44/11/11 46/84/49 55/91/56
f 55/96/56 46/79/49 43/6/6 52/5/5
f 17/10/10 23/9/9 25/55/35 21/47/33
f 21/43/33 25/50/35 22/20/20 15/19/19
f 29/59/39 37/72/47 39/75/44 32/60/40
f 32/65/40 39/69/44 36/8/8 30/7/7
f 16/16/16 45/15/15 48/87/52 20/44/34
f 20/49/34 48/82/52 44/11/11 17/10/10
f 2/13/13 16/16/16 18/46/31 6/25/25
f 6/30/25 18/41/31 15/19/19 3/18/18
f 50/4/4 24/3/3 27/58/38 53/88/53
f 53/93/53 27/53/38 23/9/9 51/12/12
f 45/15/15 31/14/14 34/68/43 49/85/51
f 49/81/51 34/63/43 30/7/7 43/6/6
f 31/14/14 2/13/13 4/27/22 35/66/42
f 35/62/42 4/22/22 1/21/21 29/59/39
f 24/3/3 8/2/2 14/33/28 28/56/37
f 28/52/37 14/38/28 10/17/17 22/20/20
f 37/72/47 29/59/39 1/21/21 9/34/29
